<?xml version="1.0" encoding="UTF-8"?><svg id="Layer_1" xmlns="http://www.w3.org/2000/svg" viewBox="0 0 1080 1080"><defs><style>.cls-1,.cls-2,.cls-3,.cls-4,.cls-5,.cls-6,.cls-7,.cls-8,.cls-9{fill:none;stroke:#e7f0dc;stroke-miterlimit:10;}.cls-2{stroke-width:2.34px;}.cls-3{stroke-width:1.85px;}.cls-4{stroke-width:2.08px;}.cls-5{stroke-width:2.09px;}.cls-6{stroke-width:2px;}.cls-7{stroke-width:1.92px;}.cls-8{stroke-width:1.96px;}.cls-9{stroke-width:1.96px;}</style></defs><g id="buttons"><rect class="cls-6" x="284.56" y="154.69" width="51.5" height="28.23"/><rect class="cls-6" x="350.11" y="154.69" width="51.5" height="28.23"/><rect class="cls-6" x="416.24" y="154.69" width="51.5" height="28.23"/><rect class="cls-6" x="480.65" y="154.69" width="51.5" height="28.23"/><rect class="cls-6" x="546.2" y="154.69" width="51.5" height="28.23"/><rect class="cls-6" x="611.18" y="154.69" width="51.5" height="28.23"/><rect class="cls-6" x="676.74" y="154.69" width="51.5" height="28.23"/><rect class="cls-6" x="741.14" y="154.69" width="51.5" height="28.23"/><circle class="cls-6" cx="154.96" cy="262.58" r="12.95"/><circle class="cls-6" cx="211.37" cy="262.58" r="12.95"/><circle class="cls-6" cx="338.47" cy="262.58" r="12.95"/><circle class="cls-6" cx="903.08" cy="482.17" r="11.01"/><circle class="cls-6" cx="903.08" cy="534.72" r="11.01"/><circle class="cls-6" cx="154.96" cy="262.58" r="17.65"/><circle class="cls-7" cx="151.69" cy="668.41" r="16.98"/><circle class="cls-7" cx="200.76" cy="668.74" r="16.98"/><circle class="cls-6" cx="211.37" cy="262.58" r="17.65"/><circle class="cls-6" cx="338.47" cy="262.58" r="17.65"/><rect class="cls-6" x="137.12" y="348.17" width="84.24" height="50.74"/><rect class="cls-6" x="137.61" y="348.17" width="41.88" height="50.74"/><circle class="cls-6" cx="904.21" cy="165.11" r="28.07"/><circle class="cls-6" cx="176.01" cy="788.05" r="31.34"/><circle class="cls-6" cx="175.87" cy="788.19" r="37.99"/><circle class="cls-6" cx="176.01" cy="889.89" r="31.34"/><circle class="cls-6" cx="175.87" cy="890.03" r="37.99"/><rect class="cls-2" x="128.76" y="646.82" width="95.43" height="43.42" rx="20.57" ry="20.57"/><rect class="cls-5" x="137.2" y="365" width="42.07" height="17.44"/><rect class="cls-6" x="867.76" y="358.51" width="31.34" height="26.69"/><rect class="cls-6" x="909.66" y="359.13" width="31.34" height="26.69"/><rect class="cls-6" x="879.55" y="398.23" width="47.23" height="18.5"/><rect class="cls-3" x="884.37" y="807.53" width="42.49" height="18.41"/><line class="cls-1" x1="882.49" y1="713.49" x2="927.22" y2="713.49"/><line class="cls-1" x1="882.49" y1="735.07" x2="927.22" y2="735.07"/><line class="cls-1" x1="883.67" y1="759" x2="928.39" y2="759"/><line class="cls-1" x1="883.67" y1="781.76" x2="928.39" y2="781.76"/><line class="cls-1" x1="883.67" y1="848.46" x2="928.39" y2="848.46"/><line class="cls-1" x1="883.67" y1="869.65" x2="928.39" y2="869.65"/><line class="cls-1" x1="883.67" y1="890.83" x2="928.39" y2="890.83"/><line class="cls-1" x1="883.67" y1="913.98" x2="928.39" y2="913.98"/><line class="cls-1" x1="883.67" y1="933.99" x2="928.39" y2="933.99"/><line class="cls-8" x1="903.95" y1="712.69" x2="903.95" y2="803.29"/><line class="cls-9" x1="903.95" y1="830.91" x2="903.95" y2="934.81"/><line class="cls-6" x1="291.28" y1="176.11" x2="329.84" y2="176.11"/><line class="cls-6" x1="356.41" y1="176.11" x2="394.97" y2="176.11"/><line class="cls-6" x1="423.25" y1="176.11" x2="461.81" y2="176.11"/><line class="cls-6" x1="487.52" y1="176.11" x2="526.08" y2="176.11"/><line class="cls-6" x1="553.07" y1="176.11" x2="591.63" y2="176.11"/><line class="cls-6" x1="617.77" y1="176.11" x2="656.33" y2="176.11"/><line class="cls-6" x1="682.89" y1="176.11" x2="721.45" y2="176.11"/><line class="cls-6" x1="748.02" y1="176.11" x2="786.58" y2="176.11"/><line class="cls-6" x1="889.15" y1="189.05" x2="905.77" y2="163.67"/><line class="cls-1" x1="906.14" y1="124.21" x2="906.14" y2="130.4"/><line class="cls-1" x1="903.35" y1="200.8" x2="903.35" y2="207"/><line class="cls-1" x1="945.5" y1="165.7" x2="939.31" y2="165.7"/><line class="cls-1" x1="922.64" y1="195.5" x2="925.67" y2="200.9"/><line class="cls-1" x1="935.9" y1="184.31" x2="941.46" y2="187.04"/><line class="cls-1" x1="936.71" y1="149.51" x2="942.13" y2="146.52"/><line class="cls-1" x1="885.47" y1="196.21" x2="882.36" y2="201.56"/><line class="cls-1" x1="922.73" y1="135.22" x2="925.98" y2="129.95"/><rect class="cls-4" x="879.27" y="802.78" width="53.02" height="28.17"/></g></svg>